# 3ds Max Wavefront OBJ Exporter v0.97b - (c)2007 guruware
# File Created: 05.06.2018 22:58:06

mtllib Interruptor.mtl

#
# object Interruptor
#

v  -5.1518 -1.1123 1.9008
v  5.1518 -1.1123 1.9008
v  6.5378 11.0358 1.9008
v  -6.5378 11.0358 1.9008
v  -6.6604 -4.2092 -3.3891
v  6.6604 -4.2092 -3.3891
v  6.6604 -4.2092 2.4966
v  -6.6604 -4.2092 2.4966
v  7.5905 -3.0281 -3.3891
v  9.6326 12.9516 -3.3891
v  9.6326 12.9516 2.4966
v  7.5905 -3.0281 2.4966
v  8.4523 14.1327 -3.3891
v  -8.4523 14.1327 -3.3891
v  -8.4523 14.1327 2.4966
v  8.4523 14.1327 2.4966
v  -9.6326 12.9516 -3.3891
v  -7.5905 -3.0281 -3.3891
v  -7.5905 -3.0281 2.4966
v  -9.6326 12.9516 2.4966
v  -6.9429 -3.3867 2.7020
v  6.9429 -3.3867 2.7020
v  6.6258 -2.9841 2.8025
v  -6.6258 -2.9841 2.8025
v  8.8107 13.3103 2.7020
v  8.4084 12.9077 2.8025
v  -8.8107 13.3103 2.7020
v  -8.4084 12.9077 2.8025
v  4.3307 -9.8020 -3.2460
v  3.7505 -7.6367 -3.2460
v  3.7540 -7.6367 -0.3605
v  4.3342 -9.8020 -0.3605
v  2.1654 -6.0515 -3.2460
v  2.1688 -6.0515 -0.3605
v  -0.0000 -5.4713 -3.2460
v  0.0035 -5.4713 -0.3605
v  -2.1654 -6.0515 -3.2460
v  -2.1619 -6.0515 -0.3605
v  -3.7505 -7.6367 -3.2460
v  -3.7470 -7.6367 -0.3605
v  -4.3307 -9.8020 -3.2460
v  -4.3272 -9.8020 -0.3605
v  -3.7505 -11.9674 -3.2460
v  -3.7470 -11.9674 -0.3605
v  -2.1654 -13.5525 -3.2460
v  -2.1619 -13.5525 -0.3605
v  -0.0000 -14.1327 -3.2460
v  0.0035 -14.1327 -0.3605
v  2.1654 -13.5525 -3.2460
v  2.1688 -13.5525 -0.3605
v  3.7505 -11.9674 -3.2460
v  3.7540 -11.9674 -0.3605
v  0.0069 -9.8020 2.4048
v  0.0069 -7.3224 2.4048
v  -1.2329 -7.6546 2.4048
v  -2.1405 -8.5622 2.4049
v  -2.4727 -9.8020 2.4049
v  -2.1405 -11.0418 2.4049
v  -1.2329 -11.9494 2.4048
v  0.0069 -12.2816 2.4048
v  1.2467 -11.9494 2.4048
v  2.1543 -11.0418 2.4049
v  2.4865 -9.8020 2.4049
v  2.1543 -8.5622 2.4049
v  1.2467 -7.6546 2.4048
v  0.0069 -7.3224 3.3891
v  0.0069 -6.0515 1.8049
v  -1.8683 -6.5540 1.8049
v  -1.2329 -7.6546 3.3891
v  -3.2411 -7.9268 1.8049
v  -2.1405 -8.5622 3.3891
v  -3.7436 -9.8020 1.8049
v  -2.4727 -9.8020 3.3891
v  -3.2411 -11.6773 1.8049
v  -2.1405 -11.0418 3.3891
v  -1.8683 -13.0500 1.8049
v  -1.2329 -11.9494 3.3891
v  0.0069 -13.5525 1.8049
v  0.0069 -12.2816 3.3891
v  1.8822 -13.0500 1.8049
v  1.2467 -11.9494 3.3891
v  3.2550 -11.6773 1.8049
v  2.1543 -11.0418 3.3891
v  3.7574 -9.8020 1.8049
v  2.4865 -9.8020 3.3891
v  3.2550 -7.9268 1.8049
v  2.1543 -8.5622 3.3891
v  1.8822 -6.5540 1.8049
v  1.2467 -7.6546 3.3891
# 89 vertices

vn 0.1839 0.1825 0.9659
vn -0.1839 0.1825 0.9659
vn -0.1972 -0.1492 0.9690
vn 0.1972 -0.1492 0.9690
vn -0.4367 -0.8996 -0.0000
vn 0.4367 -0.8996 -0.0000
vn 0.3483 -0.7722 0.5314
vn -0.3483 -0.7722 0.5314
vn 0.9222 -0.3867 -0.0000
vn 0.9464 0.3231 0.0000
vn 0.8059 0.2523 0.5356
vn 0.7948 -0.3066 0.5237
vn 0.3828 0.9238 0.0000
vn -0.3828 0.9238 0.0000
vn -0.3015 0.7861 0.5396
vn 0.3015 0.7861 0.5396
vn -0.9464 0.3231 0.0000
vn -0.9222 -0.3867 -0.0000
vn -0.7947 -0.3066 0.5238
vn -0.8059 0.2522 0.5356
vn -0.2617 -0.2231 0.9390
vn 0.2617 -0.2231 0.9390
vn 0.0381 -0.0250 0.9990
vn -0.0381 -0.0250 0.9990
vn 0.2200 0.2199 0.9504
vn 0.0516 0.0279 0.9983
vn -0.2200 0.2199 0.9504
vn -0.0516 0.0279 0.9983
vn 1.0000 0.0000 -0.0012
vn 0.8660 0.5001 -0.0010
vn 0.8590 0.4960 0.1267
vn 0.9920 -0.0000 0.1265
vn 0.4999 0.8661 -0.0006
vn 0.4959 0.8590 0.1272
vn -0.0002 1.0000 0.0000
vn -0.0000 0.9918 0.1278
vn -0.5002 0.8659 0.0006
vn -0.4959 0.8588 0.1285
vn -0.8661 0.4999 0.0010
vn -0.8588 0.4958 0.1290
vn -1.0000 0.0000 0.0012
vn -0.9916 0.0000 0.1291
vn -0.8661 -0.4999 0.0010
vn -0.8588 -0.4958 0.1290
vn -0.5001 -0.8659 0.0006
vn -0.4959 -0.8588 0.1285
vn -0.0002 -1.0000 0.0000
vn -0.0000 -0.9918 0.1278
vn 0.4999 -0.8661 -0.0006
vn 0.4959 -0.8590 0.1272
vn 0.8660 -0.5001 -0.0010
vn 0.8590 -0.4960 0.1267
vn -0.0000 0.0000 1.0000
vn -0.0000 -0.7572 0.6532
vn 0.3785 -0.6557 0.6533
vn 0.6557 -0.3786 0.6532
vn 0.7572 -0.0000 0.6532
vn 0.6557 0.3786 0.6532
vn 0.3786 0.6557 0.6532
vn 0.0000 0.7572 0.6532
vn -0.3786 0.6557 0.6532
vn -0.6557 0.3786 0.6532
vn -0.7572 0.0000 0.6532
vn -0.6557 -0.3786 0.6532
vn -0.3786 -0.6557 0.6532
vn 0.0000 -0.1795 0.9838
vn 0.0001 0.8986 0.4388
vn -0.4491 0.7781 0.4391
vn 0.0896 -0.1553 0.9838
vn -0.7779 0.4492 0.4394
vn 0.1553 -0.0896 0.9838
vn -0.8982 0.0000 0.4395
vn 0.1795 -0.0000 0.9838
vn -0.7779 -0.4492 0.4394
vn 0.1554 0.0897 0.9838
vn -0.4491 -0.7781 0.4391
vn 0.0897 0.1554 0.9838
vn 0.0001 -0.8986 0.4388
vn 0.0000 0.1795 0.9838
vn 0.4495 -0.7783 0.4384
vn -0.0897 0.1554 0.9838
vn 0.7785 -0.4494 0.4382
vn -0.1554 0.0897 0.9838
vn 0.8989 -0.0000 0.4381
vn -0.1795 -0.0000 0.9838
vn 0.7785 0.4494 0.4382
vn -0.1554 -0.0897 0.9838
vn 0.4495 0.7783 0.4384
vn -0.0897 -0.1554 0.9838
# 89 vertex normals

vt 0.0000 0.0000 0.0000
vt 1.0000 0.0000 0.0000
vt 1.0000 1.0000 0.0000
vt 0.0000 1.0000 0.0000
vt 0.0613 0.0000 0.0000
vt 0.9387 0.0000 0.0000
vt 0.9387 1.0000 0.0000
vt 0.0613 1.0000 0.0000
vt 0.0644 0.0000 0.0000
vt 0.9356 0.0000 0.0000
vt 0.9356 1.0000 0.0000
vt 0.0644 1.0000 0.0000
vt 1.0000 0.0644 0.0000
vt 1.0000 0.9356 0.0000
vt 0.0000 0.9356 0.0000
vt 0.0000 0.0644 0.0000
vt -0.1046 -0.0000 0.0000
vt -0.1046 1.0000 0.0000
vt 1.1046 1.0000 0.0000
vt 1.1046 0.0000 0.0000
vt -0.1100 -0.0000 0.0000
vt -0.1100 1.0000 0.0000
vt 0.7500 0.0000 1.0000
vt 0.8333 0.0000 1.0000
vt 0.8333 1.0000 1.0000
vt 0.7500 1.0000 1.0000
vt 0.9167 0.0000 1.0000
vt 0.9167 1.0000 1.0000
vt -0.0833 0.0000 1.0000
vt 0.0000 0.0000 1.0000
vt 0.0000 1.0000 1.0000
vt -0.0833 1.0000 1.0000
vt 0.0833 0.0000 1.0000
vt 0.0833 1.0000 1.0000
vt 0.1667 0.0000 1.0000
vt 0.1667 1.0000 1.0000
vt 0.2500 0.0000 1.0000
vt 0.2500 1.0000 1.0000
vt 0.3333 0.0000 1.0000
vt 0.3333 1.0000 1.0000
vt 0.4167 0.0000 1.0000
vt 0.4167 1.0000 1.0000
vt 0.5000 0.0000 1.0000
vt 0.5000 1.0000 1.0000
vt 0.5833 0.0000 1.0000
vt 0.5833 1.0000 1.0000
vt 0.6667 0.0000 1.0000
vt 0.6667 1.0000 1.0000
vt 0.0000 0.8333 0.0000
vt 0.0833 0.8333 0.0000
vt 0.0833 1.0000 0.0000
vt 0.1667 0.8333 0.0000
vt 0.1667 1.0000 0.0000
vt 0.2500 0.8333 0.0000
vt 0.2500 1.0000 0.0000
vt 0.3333 0.8333 0.0000
vt 0.3333 1.0000 0.0000
vt 0.4167 0.8333 0.0000
vt 0.4167 1.0000 0.0000
vt 0.5000 0.8333 0.0000
vt 0.5000 1.0000 0.0000
vt 0.5833 0.8333 0.0000
vt 0.5833 1.0000 0.0000
vt 0.6667 0.8333 0.0000
vt 0.6667 1.0000 0.0000
vt 0.7500 0.8333 0.0000
vt 0.7500 1.0000 0.0000
vt 0.8333 0.8333 0.0000
vt 0.8333 1.0000 0.0000
vt 0.9167 0.8333 0.0000
vt 0.9167 1.0000 0.0000
vt 1.0000 0.8333 0.0000
vt 0.0000 0.6667 0.0000
vt 0.0833 0.6667 0.0000
vt 0.1667 0.6667 0.0000
vt 0.2500 0.6667 0.0000
vt 0.3333 0.6667 0.0000
vt 0.4167 0.6667 0.0000
vt 0.5000 0.6667 0.0000
vt 0.5833 0.6667 0.0000
vt 0.6667 0.6667 0.0000
vt 0.7500 0.6667 0.0000
vt 0.8333 0.6667 0.0000
vt 0.9167 0.6667 0.0000
vt 1.0000 0.6667 0.0000
vt 0.0000 0.5000 0.0000
vt 0.0833 0.5000 0.0000
vt 0.1667 0.5000 0.0000
vt 0.2500 0.5000 0.0000
vt 0.3333 0.5000 0.0000
vt 0.4167 0.5000 0.0000
vt 0.5000 0.5000 0.0000
vt 0.5833 0.5000 0.0000
vt 0.6667 0.5000 0.0000
vt 0.7500 0.5000 0.0000
vt 0.8333 0.5000 0.0000
vt 0.9167 0.5000 0.0000
vt 1.0000 0.5000 0.0000
# 98 texture coords

o Interruptor
g Interruptor
usemtl wire_108008136
s 1
f 1/1/1 2/2/2 3/3/3 4/4/4 
s 2
f 5/5/5 6/6/6 7/7/7 8/8/8 
f 9/9/9 10/10/10 11/11/11 12/12/12 
f 13/5/13 14/6/14 15/7/15 16/8/16 
f 17/9/17 18/10/18 19/11/19 20/12/20 
s 4
f 21/1/21 8/5/8 7/6/7 22/2/22 23/2/23 24/1/24 
f 22/2/22 12/13/12 11/14/11 25/3/25 26/3/26 23/2/23 
f 25/3/25 16/7/16 15/8/15 27/4/27 28/4/28 26/3/26 
f 27/4/27 20/15/20 19/16/19 21/1/21 24/1/24 28/4/28 
s 1
f 24/1/24 23/2/23 2/2/2 1/1/1 
f 23/2/23 26/3/26 3/3/3 2/2/2 
f 26/3/26 28/4/28 4/4/4 3/3/3 
f 28/4/28 24/1/24 1/1/1 4/4/4 
s 4
f 8/5/8 21/1/21 19/16/19 
f 12/13/12 22/2/22 7/6/7 
f 20/15/20 27/4/27 15/8/15 
f 16/7/16 25/3/25 11/14/11 
s 8
f 6/17/6 9/9/9 12/12/12 7/18/7 
f 8/19/8 19/11/19 18/10/18 5/20/5 
f 10/21/10 13/5/13 16/8/16 11/22/11 
f 14/17/14 17/9/17 20/12/20 15/18/15 
f 29/23/29 30/24/30 31/25/31 32/26/32 
f 30/24/30 33/27/33 34/28/34 31/25/31 
f 33/29/33 35/30/35 36/31/36 34/32/34 
f 35/30/35 37/33/37 38/34/38 36/31/36 
f 37/33/37 39/35/39 40/36/40 38/34/38 
f 39/35/39 41/37/41 42/38/42 40/36/40 
f 41/37/41 43/39/43 44/40/44 42/38/42 
f 43/39/43 45/41/45 46/42/46 44/40/44 
f 45/41/45 47/43/47 48/44/48 46/42/46 
f 47/43/47 49/45/49 50/46/50 48/44/48 
f 49/45/49 51/47/51 52/48/52 50/46/50 
f 51/47/51 29/23/29 32/26/32 52/48/52 
s 1
f 53/4/53 54/49/54 55/50/55 
f 53/51/53 55/50/55 56/52/56 
f 53/53/53 56/52/56 57/54/57 
f 53/55/53 57/54/57 58/56/58 
f 53/57/53 58/56/58 59/58/59 
f 53/59/53 59/58/59 60/60/60 
f 53/61/53 60/60/60 61/62/61 
f 53/63/53 61/62/61 62/64/62 
f 53/65/53 62/64/62 63/66/63 
f 53/67/53 63/66/63 64/68/64 
f 53/69/53 64/68/64 65/70/65 
f 53/71/53 65/70/65 54/72/54 
f 66/49/66 67/73/67 68/74/68 69/50/69 
f 69/50/69 68/74/68 70/75/70 71/52/71 
f 71/52/71 70/75/70 72/76/72 73/54/73 
f 73/54/73 72/76/72 74/77/74 75/56/75 
f 75/56/75 74/77/74 76/78/76 77/58/77 
f 77/58/77 76/78/76 78/79/78 79/60/79 
f 79/60/79 78/79/78 80/80/80 81/62/81 
f 81/62/81 80/80/80 82/81/82 83/64/83 
f 83/64/83 82/81/82 84/82/84 85/66/85 
f 85/66/85 84/82/84 86/83/86 87/68/87 
f 87/68/87 86/83/86 88/84/88 89/70/89 
f 89/70/89 88/84/88 67/85/67 66/72/66 
f 67/73/67 36/86/36 38/87/38 68/74/68 
f 68/74/68 38/87/38 40/88/40 70/75/70 
f 70/75/70 40/88/40 42/89/42 72/76/72 
f 72/76/72 42/89/42 44/90/44 74/77/74 
f 74/77/74 44/90/44 46/91/46 76/78/76 
f 76/78/76 46/91/46 48/92/48 78/79/78 
f 78/79/78 48/92/48 50/93/50 80/80/80 
f 80/80/80 50/93/50 52/94/52 82/81/82 
f 82/81/82 52/94/52 32/95/32 84/82/84 
f 84/82/84 32/95/32 31/96/31 86/83/86 
f 86/83/86 31/96/31 34/97/34 88/84/88 
f 88/84/88 34/97/34 36/98/36 67/85/67 
s 2
f 66/49/66 69/50/69 55/50/55 54/49/54 
f 69/50/69 71/52/71 56/52/56 55/50/55 
f 71/52/71 73/54/73 57/54/57 56/52/56 
f 73/54/73 75/56/75 58/56/58 57/54/57 
f 75/56/75 77/58/77 59/58/59 58/56/58 
f 77/58/77 79/60/79 60/60/60 59/58/59 
f 79/60/79 81/62/81 61/62/61 60/60/60 
f 81/62/81 83/64/83 62/64/62 61/62/61 
f 83/64/83 85/66/85 63/66/63 62/64/62 
f 85/66/85 87/68/87 64/68/64 63/66/63 
f 87/68/87 89/70/89 65/70/65 64/68/64 
f 89/70/89 66/72/66 54/72/54 65/70/65 
# 65 polygons - 16 triangles

